<?xml version="1.0" encoding="utf-8"?>
<!-- Generator: Adobe Adobe Illustrator 24.2.0, SVG Export Plug-In . SVG Version: 6.00 Build 0)  -->
<svg version="1.1" id="레이어_1" xmlns="http://www.w3.org/2000/svg" xmlns:xlink="http://www.w3.org/1999/xlink" x="0px"
	 y="0px" width="480px" height="480px" viewBox="0 0 480 480" style="enable-background:new 0 0 480 480;" xml:space="preserve">
<style type="text/css">
	.st0{fill:#4FFFF9;}
	.st1{fill:none;stroke:#1AFFFF;stroke-width:5;stroke-miterlimit:10;}
	.st2{stroke:#FF0000;stroke-width:5;stroke-miterlimit:10;stroke-dasharray:0,0,0,0,0,0;}
	.st3{fill:none;stroke:#F799E9;stroke-width:15;stroke-miterlimit:10;stroke-dasharray:0,0,0,0,0,0;}
	.st4{fill:none;stroke:#96FF96;stroke-width:10;stroke-miterlimit:10;}
	.st5{fill:none;stroke:#00FF00;stroke-width:10;stroke-linecap:round;stroke-miterlimit:10;stroke-dasharray:0,0,0,0,0,0;}
	.st6{fill:none;stroke:#F5F511;stroke-width:10;stroke-miterlimit:10;}
	.st7{fill:none;stroke:#F5111D;stroke-width:10;stroke-miterlimit:10;}
	.st8{fill:none;stroke:#8CC63F;stroke-width:10;stroke-miterlimit:10;}
	.st9{fill:none;stroke:#0071BC;stroke-width:10;stroke-miterlimit:10;}
	.st10{fill:none;stroke:#FF0000;stroke-width:10;stroke-miterlimit:10;}
	.st11{fill:none;stroke:#000000;stroke-width:5;stroke-miterlimit:10;}
	.st12{fill:none;stroke:#C273FF;stroke-width:5;stroke-miterlimit:10;}
	.st13{fill:none;stroke:#FF0000;stroke-width:5;stroke-miterlimit:10;}
	.st14{fill:none;stroke:#8CC63F;stroke-width:5;stroke-miterlimit:10;}
	.st15{fill:none;stroke:#44611F;stroke-width:5;stroke-miterlimit:10;}
	.st16{fill:none;stroke:#FFBFE1;stroke-width:5;stroke-miterlimit:10;stroke-dasharray:12,12,12,12,12,12;}
</style>
<line class="st11" x1="152.02" y1="99.36" x2="152.02" y2="401.28"/>
<line class="st11" x1="346.42" y1="96.67" x2="346.42" y2="398.58"/>
<rect x="169.85" y="335.61" class="st12" width="158.74" height="44.97"/>
<rect x="168.96" y="272.59" class="st12" width="158.74" height="44.97"/>
<rect x="169.85" y="209.57" class="st12" width="158.74" height="44.97"/>
<rect x="168.96" y="146.55" class="st12" width="158.74" height="44.97"/>
<g>
	<path class="st13" d="M75.33,30.88c30.47-12.19,66.25-10.3,95.27,5.02s50.76,43.8,57.88,75.84"/>
	<path class="st13" d="M197.87,104.1c11.76-0.67,23.71,2.51,33.55,8.93c3.06-17.57,9.1-34.62,17.8-50.22"/>
</g>
<g>
	<path class="st13" d="M253.86,112.66c13.44-29.94,40.48-53.44,72-62.59s66.94-3.78,94.33,14.31"/>
	<path class="st13" d="M392.87,80.16c7.99-8.65,18.79-14.67,30.33-16.89c-10.01-14.76-17.51-31.22-22.09-48.48"/>
</g>
<g>
	<path class="st13" d="M409.13,446.28c-30.95,0.33-64.27-5.99-88.71-16.81s-39.57-25.97-40.28-40.33"/>
	<path class="st13" d="M393.28,469.82c4.37-10.01,10.81-18.3,18.06-23.27c-7.82-11.06-14.17-24.34-18.72-39.09"/>
</g>
<path class="st13" d="M232.99,395.49c-14.34,15.46-36.01,30.12-57.69,39.04s-42.99,11.92-56.74,8.01"/>
<g>
</g>
<path class="st13" d="M130.55,466.11c-4.36-8.12-9.3-15.94-14.75-23.37c11.95-1.68,21.98-12.46,22.8-24.5"/>
</svg>
