<?xml version="1.0" encoding="utf-8"?>
<!-- Generator: Adobe Adobe Illustrator 24.2.0, SVG Export Plug-In . SVG Version: 6.00 Build 0)  -->
<svg version="1.1" id="레이어_1" xmlns="http://www.w3.org/2000/svg" xmlns:xlink="http://www.w3.org/1999/xlink" x="0px"
	 y="0px" width="480px" height="480px" viewBox="0 0 480 480" style="enable-background:new 0 0 480 480;" xml:space="preserve">
<style type="text/css">
	.st0{fill:#4FFFF9;}
	.st1{fill:none;stroke:#1AFFFF;stroke-width:5;stroke-miterlimit:10;}
	.st2{stroke:#FF0000;stroke-width:5;stroke-miterlimit:10;stroke-dasharray:0,0,0,0,0,0;}
	.st3{fill:none;stroke:#F799E9;stroke-width:15;stroke-miterlimit:10;stroke-dasharray:0,0,0,0,0,0;}
	.st4{fill:none;stroke:#96FF96;stroke-width:10;stroke-miterlimit:10;}
	.st5{fill:none;stroke:#00FF00;stroke-width:10;stroke-linecap:round;stroke-miterlimit:10;stroke-dasharray:0,0,0,0,0,0;}
	.st6{fill:none;stroke:#F5F511;stroke-width:10;stroke-miterlimit:10;}
	.st7{fill:none;stroke:#F5111D;stroke-width:10;stroke-miterlimit:10;}
	.st8{fill:none;stroke:#8CC63F;stroke-width:10;stroke-miterlimit:10;}
	.st9{fill:none;stroke:#0071BC;stroke-width:10;stroke-miterlimit:10;}
	.st10{fill:none;stroke:#FF0000;stroke-width:10;stroke-miterlimit:10;}
	.st11{fill:none;stroke:#000000;stroke-width:5;stroke-miterlimit:10;}
	.st12{fill:none;stroke:#C273FF;stroke-width:5;stroke-miterlimit:10;}
	.st13{fill:none;stroke:#FF0000;stroke-width:5;stroke-miterlimit:10;}
	.st14{fill:none;stroke:#8CC63F;stroke-width:5;stroke-miterlimit:10;}
	.st15{fill:none;stroke:#44611F;stroke-width:5;stroke-miterlimit:10;}
	.st16{fill:none;stroke:#FFBFE1;stroke-width:5;stroke-miterlimit:10;stroke-dasharray:12,12,12,12,12,12;}
</style>
<rect x="21.52" y="240" class="st6" width="139" height="58.51"/>
<line class="st6" x1="16.81" y1="240" x2="47" y2="210.81"/>
<line class="st6" x1="44.8" y1="210.81" x2="179.2" y2="210.81"/>
<line class="st6" x1="160.52" y1="240" x2="179.2" y2="210.81"/>
<path class="st6" d="M179.2,210.81c-0.2,23.19-0.2,47.19,0,70.15"/>
<line class="st6" x1="161" y1="298.51" x2="181.84" y2="269.26"/>
<rect x="21.52" y="240" class="st6" width="139" height="58.51"/>
<line class="st6" x1="16.81" y1="240" x2="47" y2="210.81"/>
<line class="st6" x1="160.52" y1="240" x2="179.2" y2="210.81"/>
<path class="st6" d="M179.2,210.81c-0.2,23.19-0.2,47.19,0,70.15"/>
<line class="st6" x1="161" y1="298.51" x2="181.84" y2="269.26"/>
<rect x="21.52" y="240" class="st6" width="139" height="58.51"/>
<line class="st6" x1="16.81" y1="240" x2="47" y2="210.81"/>
<line class="st6" x1="160.52" y1="240" x2="179.2" y2="210.81"/>
<path class="st6" d="M179.2,210.81c-0.2,23.19-0.2,47.19,0,70.15"/>
<line class="st6" x1="161" y1="298.51" x2="181.84" y2="269.26"/>
<rect x="162.19" y="240" class="st6" width="139" height="58.51"/>
<line class="st6" x1="157.49" y1="240" x2="187.68" y2="210.81"/>
<line class="st6" x1="185.48" y1="210.81" x2="319.87" y2="210.81"/>
<line class="st6" x1="301.19" y1="240" x2="319.87" y2="210.81"/>
<path class="st6" d="M319.87,210.81c-0.2,23.19-0.2,47.19,0,70.15"/>
<line class="st6" x1="301.68" y1="298.51" x2="322.51" y2="269.26"/>
<rect x="162.19" y="240" class="st6" width="139" height="58.51"/>
<line class="st6" x1="157.49" y1="240" x2="187.68" y2="210.81"/>
<line class="st6" x1="301.19" y1="240" x2="319.87" y2="210.81"/>
<path class="st6" d="M319.87,210.81c-0.2,23.19-0.2,47.19,0,70.15"/>
<line class="st6" x1="301.68" y1="298.51" x2="322.51" y2="269.26"/>
<rect x="162.19" y="240" class="st6" width="139" height="58.51"/>
<line class="st6" x1="157.49" y1="240" x2="187.68" y2="210.81"/>
<line class="st6" x1="301.19" y1="240" x2="319.87" y2="210.81"/>
<path class="st6" d="M319.87,210.81c-0.2,23.19-0.2,47.19,0,70.15"/>
<line class="st6" x1="301.68" y1="298.51" x2="322.51" y2="269.26"/>
<rect x="296.21" y="240" class="st6" width="139" height="58.51"/>
<line class="st6" x1="291.5" y1="240" x2="321.69" y2="210.81"/>
<line class="st6" x1="319.49" y1="210.81" x2="453.88" y2="210.81"/>
<line class="st6" x1="435.21" y1="240" x2="453.88" y2="210.81"/>
<path class="st6" d="M453.88,210.81c-0.2,23.19-0.2,47.19,0,70.15"/>
<line class="st6" x1="435.69" y1="298.51" x2="456.52" y2="269.26"/>
<rect x="296.21" y="240" class="st6" width="139" height="58.51"/>
<line class="st6" x1="291.5" y1="240" x2="321.69" y2="210.81"/>
<line class="st6" x1="435.21" y1="240" x2="453.88" y2="210.81"/>
<path class="st6" d="M453.88,210.81c-0.2,23.19-0.2,47.19,0,70.15"/>
<line class="st6" x1="435.69" y1="298.51" x2="456.52" y2="269.26"/>
<rect x="296.21" y="240" class="st6" width="139" height="58.51"/>
<line class="st6" x1="291.5" y1="240" x2="321.69" y2="210.81"/>
<line class="st6" x1="435.21" y1="240" x2="453.88" y2="210.81"/>
<path class="st6" d="M453.88,210.81c-0.2,23.19-0.2,47.19,0,70.15"/>
<line class="st6" x1="435.69" y1="298.51" x2="456.52" y2="269.26"/>
</svg>
