<?xml version="1.0" encoding="utf-8"?>
<!-- Generator: Adobe Adobe Illustrator 24.2.0, SVG Export Plug-In . SVG Version: 6.00 Build 0)  -->
<svg version="1.1" id="레이어_1" xmlns="http://www.w3.org/2000/svg" xmlns:xlink="http://www.w3.org/1999/xlink" x="0px"
	 y="0px" width="480px" height="480px" viewBox="0 0 480 480" style="enable-background:new 0 0 480 480;" xml:space="preserve">
<style type="text/css">
	.st0{fill:#4FFFF9;}
	.st1{fill:none;stroke:#1AFFFF;stroke-width:5;stroke-miterlimit:10;}
	.st2{stroke:#FF0000;stroke-width:5;stroke-miterlimit:10;stroke-dasharray:0,0,0,0,0,0;}
	.st3{fill:none;stroke:#F799E9;stroke-width:15;stroke-miterlimit:10;stroke-dasharray:0,0,0,0,0,0;}
	.st4{fill:none;stroke:#96FF96;stroke-width:10;stroke-miterlimit:10;}
	.st5{fill:none;stroke:#00FF00;stroke-width:10;stroke-linecap:round;stroke-miterlimit:10;stroke-dasharray:0,0,0,0,0,0;}
	.st6{fill:none;stroke:#F5F511;stroke-width:10;stroke-miterlimit:10;}
	.st7{fill:none;stroke:#F5111D;stroke-width:10;stroke-miterlimit:10;}
	.st8{fill:none;stroke:#8CC63F;stroke-width:10;stroke-miterlimit:10;}
	.st9{fill:none;stroke:#0071BC;stroke-width:10;stroke-miterlimit:10;}
	.st10{fill:none;stroke:#FF0000;stroke-width:10;stroke-miterlimit:10;}
	.st11{fill:none;stroke:#000000;stroke-width:5;stroke-miterlimit:10;}
	.st12{fill:none;stroke:#C273FF;stroke-width:5;stroke-miterlimit:10;}
	.st13{fill:none;stroke:#FF0000;stroke-width:5;stroke-miterlimit:10;}
	.st14{fill:none;stroke:#8CC63F;stroke-width:5;stroke-miterlimit:10;}
	.st15{fill:none;stroke:#44611F;stroke-width:5;stroke-miterlimit:10;}
	.st16{fill:none;stroke:#FFBFE1;stroke-width:5;stroke-miterlimit:10;stroke-dasharray:12,12,12,12,12,12;}
</style>
<path class="st3" d="M72.33,162.11c50.22-21.46,100.58-42.56,151.1-63.31"/>
<path class="st3" d="M126.72,142.99c9.1,31.03,12.5,63.72,9.99,95.97c-1.24,15.86-4.31,32.53-14.83,44.45"/>
<path class="st3" d="M165.06,130.53c8.2,30.6,23.05,59.39,43.22,83.82c6.3,7.63,13.86,15.26,23.63,16.85
	c5.44,0.89,11.04-0.23,16.21-2.17c24.73-9.26,39.59-39.14,32.07-64.45"/>
<path class="st5" d="M313.01,316.05c1.68,10.13,0.74,20.5,1.47,30.74c0.73,10.24,3.5,20.98,10.99,28
	c18.11-4.19,36.25-8.24,54.43-12.15"/>
<path class="st5" d="M370.83,311.04c-22.65,35.34-42.21,72.67-58.36,111.41"/>
<path class="st5" d="M265.71,295.52c49.58-2.06,99.24-2.05,148.82,0.05"/>
<path class="st5" d="M327.11,184.34c5.4-3.23,10.14-7.44,15.45-10.82c5.3-3.38,11.46-5.97,17.72-5.38
	c4.62,0.44,9.04,2.67,12.14,6.11c4.73,5.25,6.11,12.82,5.53,19.86c-0.26,3.13-0.9,6.34-2.74,8.89c-1.13,1.56-2.64,2.8-4.21,3.93
	c-11.93,8.58-26.93,11.38-44.1,15.89c11.06-1.26,22.3-0.92,33.27,1.01c5.09,0.9,10.34,2.24,14.25,5.63
	c5.16,4.47,7.02,11.69,7.41,18.51c0.16,2.81,0.1,5.7-0.92,8.31c-1.59,4.08-5.38,6.98-9.47,8.53s-8.52,1.93-12.88,2.3
	c-15.91,1.33-31.9,2.67-47.81,1.36"/>
</svg>
