<?xml version="1.0" encoding="utf-8"?>
<!-- Generator: Adobe Adobe Illustrator 24.2.0, SVG Export Plug-In . SVG Version: 6.00 Build 0)  -->
<svg version="1.1" id="레이어_1" xmlns="http://www.w3.org/2000/svg" xmlns:xlink="http://www.w3.org/1999/xlink" x="0px"
	 y="0px" width="480px" height="480px" viewBox="0 0 480 480" style="enable-background:new 0 0 480 480;" xml:space="preserve">
<style type="text/css">
	.st0{fill:#4FFFF9;}
	.st1{fill:none;stroke:#1AFFFF;stroke-width:5;stroke-miterlimit:10;}
	.st2{stroke:#FF0000;stroke-width:5;stroke-miterlimit:10;stroke-dasharray:0,0,0,0,0,0;}
	.st3{fill:none;stroke:#F799E9;stroke-width:15;stroke-miterlimit:10;stroke-dasharray:0,0,0,0,0,0;}
	.st4{fill:none;stroke:#96FF96;stroke-width:10;stroke-miterlimit:10;}
	.st5{fill:none;stroke:#00FF00;stroke-width:10;stroke-linecap:round;stroke-miterlimit:10;stroke-dasharray:0,0,0,0,0,0;}
	.st6{fill:none;stroke:#F5F511;stroke-width:10;stroke-miterlimit:10;}
	.st7{fill:none;stroke:#F5111D;stroke-width:10;stroke-miterlimit:10;}
	.st8{fill:none;stroke:#8CC63F;stroke-width:10;stroke-miterlimit:10;}
	.st9{fill:none;stroke:#0071BC;stroke-width:10;stroke-miterlimit:10;}
	.st10{fill:none;stroke:#FF0000;stroke-width:10;stroke-miterlimit:10;}
	.st11{fill:none;stroke:#000000;stroke-width:5;stroke-miterlimit:10;}
	.st12{fill:none;stroke:#C273FF;stroke-width:5;stroke-miterlimit:10;}
	.st13{fill:none;stroke:#FF0000;stroke-width:5;stroke-miterlimit:10;}
	.st14{fill:none;stroke:#8CC63F;stroke-width:5;stroke-miterlimit:10;}
	.st15{fill:none;stroke:#44611F;stroke-width:5;stroke-miterlimit:10;}
	.st16{fill:none;stroke:#FFBFE1;stroke-width:5;stroke-miterlimit:10;stroke-dasharray:12,12,12,12,12,12;}
</style>
<ellipse class="st1" cx="134" cy="223.82" rx="27" ry="27.5"/>
<ellipse class="st1" cx="76" cy="83.82" rx="27" ry="27.5"/>
<ellipse class="st1" cx="213" cy="133.82" rx="27" ry="27.5"/>
<ellipse class="st1" cx="213" cy="133.82" rx="27" ry="27.5"/>
<ellipse class="st1" cx="325" cy="340.82" rx="27" ry="27.5"/>
<ellipse class="st1" cx="325" cy="340.82" rx="27" ry="27.5"/>
<ellipse class="st1" cx="346" cy="67.82" rx="27" ry="27.5"/>
<ellipse class="st1" cx="346" cy="67.82" rx="27" ry="27.5"/>
<ellipse class="st1" cx="319" cy="212.5" rx="27" ry="27.5"/>
<ellipse class="st1" cx="319" cy="212.5" rx="27" ry="27.5"/>
<ellipse class="st1" cx="179" cy="378.5" rx="27" ry="27.5"/>
<ellipse class="st1" cx="179" cy="378.5" rx="27" ry="27.5"/>
<line class="st11" x1="229.54" y1="117.65" x2="319" y2="67.82"/>
<line class="st11" x1="186.73" y1="352.15" x2="213" y2="161.32"/>
<line class="st11" x1="152" y1="235.15" x2="301.53" y2="324.65"/>
<line class="st11" x1="319" y1="240" x2="325" y2="313.32"/>
<line class="st11" x1="91.06" y1="106.65" x2="134" y2="196.32"/>
</svg>
