<?xml version="1.0" encoding="utf-8"?>
<!-- Generator: Adobe Adobe Illustrator 24.2.0, SVG Export Plug-In . SVG Version: 6.00 Build 0)  -->
<svg version="1.1" id="레이어_1" xmlns="http://www.w3.org/2000/svg" xmlns:xlink="http://www.w3.org/1999/xlink" x="0px"
	 y="0px" width="480px" height="480px" viewBox="0 0 480 480" style="enable-background:new 0 0 480 480;" xml:space="preserve">
<style type="text/css">
	.st0{fill:#4FFFF9;}
	.st1{fill:none;stroke:#1AFFFF;stroke-width:5;stroke-miterlimit:10;}
	.st2{stroke:#FF0000;stroke-width:5;stroke-miterlimit:10;stroke-dasharray:0,0,0,0,0,0;}
	.st3{fill:none;stroke:#F799E9;stroke-width:15;stroke-miterlimit:10;stroke-dasharray:0,0,0,0,0,0;}
	.st4{fill:none;stroke:#96FF96;stroke-width:10;stroke-miterlimit:10;}
	.st5{fill:none;stroke:#00FF00;stroke-width:10;stroke-linecap:round;stroke-miterlimit:10;stroke-dasharray:0,0,0,0,0,0;}
	.st6{fill:none;stroke:#F5F511;stroke-width:10;stroke-miterlimit:10;}
	.st7{fill:none;stroke:#F5111D;stroke-width:10;stroke-miterlimit:10;}
	.st8{fill:none;stroke:#8CC63F;stroke-width:10;stroke-miterlimit:10;}
	.st9{fill:none;stroke:#0071BC;stroke-width:10;stroke-miterlimit:10;}
	.st10{fill:none;stroke:#FF0000;stroke-width:10;stroke-miterlimit:10;}
	.st11{fill:none;stroke:#000000;stroke-width:5;stroke-miterlimit:10;}
	.st12{fill:none;stroke:#C273FF;stroke-width:5;stroke-miterlimit:10;}
	.st13{fill:none;stroke:#FF0000;stroke-width:5;stroke-miterlimit:10;}
	.st14{fill:none;stroke:#8CC63F;stroke-width:5;stroke-miterlimit:10;}
	.st15{fill:none;stroke:#44611F;stroke-width:5;stroke-miterlimit:10;}
	.st16{fill:none;stroke:#FFBFE1;stroke-width:5;stroke-miterlimit:10;stroke-dasharray:12,12,12,12,12,12;}
</style>
<ellipse transform="matrix(0.7475 -0.6643 0.6643 0.7475 -166.0728 221.3236)" class="st1" cx="208.09" cy="329.11" rx="27" ry="27.5"/>
<ellipse transform="matrix(0.7475 -0.6643 0.6643 0.7475 -156.5782 114.0549)" class="st1" cx="71.74" cy="262.99" rx="27" ry="27.5"/>
<ellipse transform="matrix(0.7475 -0.6643 0.6643 0.7475 -86.7111 190.6013)" class="st1" cx="207.36" cy="209.36" rx="27" ry="27.5"/>
<ellipse transform="matrix(0.7475 -0.6643 0.6643 0.7475 -86.7111 190.6013)" class="st1" cx="207.36" cy="209.36" rx="27" ry="27.5"/>
<ellipse transform="matrix(0.7475 -0.6643 0.6643 0.7475 -84.2169 357.8346)" class="st1" cx="428.58" cy="289.69" rx="27" ry="27.5"/>
<ellipse transform="matrix(0.7475 -0.6643 0.6643 0.7475 -84.2169 357.8346)" class="st1" cx="428.58" cy="289.69" rx="27" ry="27.5"/>
<ellipse transform="matrix(0.7475 -0.6643 0.6643 0.7475 18.7782 192.7543)" class="st1" cx="262.93" cy="71.68" rx="27" ry="27.5"/>
<ellipse transform="matrix(0.7475 -0.6643 0.6643 0.7475 18.7782 192.7543)" class="st1" cx="262.93" cy="71.68" rx="27" ry="27.5"/>
<ellipse transform="matrix(0.7475 -0.6643 0.6643 0.7475 -45.8023 275.0196)" class="st1" cx="338.85" cy="197.76" rx="27" ry="27.5"/>
<ellipse transform="matrix(0.7475 -0.6643 0.6643 0.7475 -45.8023 275.0196)" class="st1" cx="338.85" cy="197.76" rx="27" ry="27.5"/>
<ellipse transform="matrix(0.7475 -0.6643 0.6643 0.7475 -188.5826 333.5632)" class="st1" cx="344.47" cy="414.84" rx="27" ry="27.5"/>
<ellipse transform="matrix(0.7475 -0.6643 0.6643 0.7475 -188.5826 333.5632)" class="st1" cx="344.47" cy="414.84" rx="27" ry="27.5"/>
<path class="st2" d="M98.56,276.59c25.78,13.96,52.02,27.07,78.66,39.31c0.7,0.32,1.49,0.91,2.13,0.49
	c0.64-0.42-0.86-1.27-0.56-0.56"/>
<path class="st2" d="M212.43,298.47c0.2-20.1,0.94-40.19,2.22-60.24"/>
<line class="st2" x1="229.41" y1="226.55" x2="331.44" y2="389.63"/>
<line class="st2" x1="357.12" y1="218.32" x2="405.83" y2="273.12"/>
<line class="st2" x1="217.78" y1="180.44" x2="257.86" y2="97.59"/>
<line class="st2" x1="279.44" y1="93.79" x2="320.59" y2="177.2"/>
<line class="st13" x1="91.8" y1="238.9" x2="242.75" y2="89.61"/>
<line class="st13" x1="227.11" y1="320.54" x2="408.4" y2="307.63"/>
<line class="st13" x1="330.96" y1="393" x2="340.79" y2="226.34"/>
</svg>
