<?xml version="1.0" encoding="utf-8"?>
<!-- Generator: Adobe Adobe Illustrator 24.2.0, SVG Export Plug-In . SVG Version: 6.00 Build 0)  -->
<svg version="1.1" id="레이어_1" xmlns="http://www.w3.org/2000/svg" xmlns:xlink="http://www.w3.org/1999/xlink" x="0px"
	 y="0px" width="480px" height="480px" viewBox="0 0 480 480" style="enable-background:new 0 0 480 480;" xml:space="preserve">
<style type="text/css">
	.st0{fill:#4FFFF9;}
	.st1{fill:none;stroke:#1AFFFF;stroke-width:5;stroke-miterlimit:10;}
	.st2{stroke:#FF0000;stroke-width:5;stroke-miterlimit:10;stroke-dasharray:0,0,0,0,0,0;}
	.st3{fill:none;stroke:#F799E9;stroke-width:15;stroke-miterlimit:10;stroke-dasharray:0,0,0,0,0,0;}
	.st4{fill:none;stroke:#96FF96;stroke-width:10;stroke-miterlimit:10;}
	.st5{fill:none;stroke:#00FF00;stroke-width:10;stroke-linecap:round;stroke-miterlimit:10;stroke-dasharray:0,0,0,0,0,0;}
	.st6{fill:none;stroke:#F5F511;stroke-width:10;stroke-miterlimit:10;}
	.st7{fill:none;stroke:#F5111D;stroke-width:10;stroke-miterlimit:10;}
	.st8{fill:none;stroke:#8CC63F;stroke-width:10;stroke-miterlimit:10;}
	.st9{fill:none;stroke:#0071BC;stroke-width:10;stroke-miterlimit:10;}
	.st10{fill:none;stroke:#FF0000;stroke-width:10;stroke-miterlimit:10;}
	.st11{fill:none;stroke:#000000;stroke-width:5;stroke-miterlimit:10;}
	.st12{fill:none;stroke:#C273FF;stroke-width:5;stroke-miterlimit:10;}
	.st13{fill:none;stroke:#FF0000;stroke-width:5;stroke-miterlimit:10;}
	.st14{fill:none;stroke:#8CC63F;stroke-width:5;stroke-miterlimit:10;}
	.st15{fill:none;stroke:#44611F;stroke-width:5;stroke-miterlimit:10;}
	.st16{fill:none;stroke:#FFBFE1;stroke-width:5;stroke-miterlimit:10;stroke-dasharray:12,12,12,12,12,12;}
</style>
<ellipse transform="matrix(0.9325 -0.3611 0.3611 0.9325 -50.6185 82.1477)" class="st1" cx="194.53" cy="176.53" rx="27.5" ry="27"/>
<ellipse transform="matrix(0.9325 -0.3611 0.3611 0.9325 -5.4421 114.6669)" class="st1" cx="304.14" cy="71.9" rx="27.5" ry="27"/>
<ellipse transform="matrix(0.9325 -0.3611 0.3611 0.9325 -57.8989 125.5291)" class="st1" cx="306.98" cy="217.71" rx="27.5" ry="27"/>
<ellipse transform="matrix(0.9325 -0.3611 0.3611 0.9325 -57.8989 125.5291)" class="st1" cx="306.98" cy="217.71" rx="27.5" ry="27"/>
<ellipse transform="matrix(0.9325 -0.3611 0.3611 0.9325 -132.8926 82.5195)" class="st1" cx="154.38" cy="396.89" rx="27.5" ry="27"/>
<ellipse transform="matrix(0.9325 -0.3611 0.3611 0.9325 -132.8926 82.5195)" class="st1" cx="154.38" cy="396.89" rx="27.5" ry="27"/>
<ellipse transform="matrix(0.9325 -0.3611 0.3611 0.9325 -86.6854 171.8514)" class="st1" cx="416.55" cy="317.91" rx="27.5" ry="27"/>
<ellipse transform="matrix(0.9325 -0.3611 0.3611 0.9325 -86.6854 171.8514)" class="st1" cx="416.55" cy="317.91" rx="27.5" ry="27"/>
<ellipse transform="matrix(0.9325 -0.3611 0.3611 0.9325 -106.2153 121.4426)" class="st1" cx="271.89" cy="344.96" rx="27.5" ry="27"/>
<ellipse transform="matrix(0.9325 -0.3611 0.3611 0.9325 -106.2153 121.4426)" class="st1" cx="271.89" cy="344.96" rx="27.5" ry="27"/>
<ellipse transform="matrix(0.9325 -0.3611 0.3611 0.9325 -94.5709 42.5318)" class="st1" cx="66.53" cy="274.35" rx="27.5" ry="27"/>
<ellipse transform="matrix(0.9325 -0.3611 0.3611 0.9325 -94.5709 42.5318)" class="st1" cx="66.53" cy="274.35" rx="27.5" ry="27"/>
<path class="st2" d="M282.02,92.28c-22.09,19.27-43.55,39.27-64.32,59.96c-0.54,0.54-1.37,1.08-1.21,1.82
	c0.17,0.75,1.49-0.36,0.72-0.32"/>
<path class="st2" d="M221.72,191.31c18.76,7.21,37.32,14.92,55.67,23.13"/>
<line class="st2" x1="283.16" y1="232.36" x2="94.71" y2="270.95"/>
<line class="st2" x1="246.24" y1="354.89" x2="177.86" y2="381.37"/>
<line class="st2" x1="330.43" y1="237.58" x2="394.05" y2="304.1"/>
<line class="st2" x1="390.06" y1="325.64" x2="297.53" y2="335.04"/>
<path class="st13" d="M213.87,126.62c1.11,10.08,0.48,20.34-1.84,30.21c3.84-2.89,9.09-2.77,13.89-2.49
	c8.59,0.5,17.17,1.09,25.75,1.77"/>
<path class="st13" d="M271.72,194.31c-1.21,7.87,1.79,16.26,7.71,21.57c-10.1,1.19-20.2,2.38-30.3,3.58"/>
<path class="st13" d="M351.86,238.05c-7.54,1.93-15.93,0.2-22.09-4.57c-0.35,7.27-2.34,14.46-5.77,20.89"/>
<path class="st13" d="M107.96,250.09c-3.87,7.65-8.99,14.67-15.09,20.69c8.89,1.07,17.26,5.94,22.59,13.14"/>
<path class="st13" d="M226.03,346.64c5.5,3.73,11.54,6.66,17.88,8.68c-2.11,3.86-3.75,7.98-4.86,12.24c-0.83,3.19-0.9,7.44,2.1,8.82
	"/>
<path class="st13" d="M367.71,310.72c5.19,6.98,14.78,8.96,21.43,14.56c-5.99,4.33-10.33,10.88-11.98,18.09"/>
<line class="st13" x1="162.92" y1="371.07" x2="187.02" y2="208.39"/>
<path class="st13" d="M165.35,215.37c8.33-1.18,16.37-4.27,23.34-8.98c1.25,1.13,0.99,3.11,0.87,4.8
	c-0.46,6.91,3.9,13.88,10.32,16.5"/>
</svg>
