<?xml version="1.0" encoding="utf-8"?>
<!-- Generator: Adobe Adobe Illustrator 24.2.0, SVG Export Plug-In . SVG Version: 6.00 Build 0)  -->
<svg version="1.1" id="레이어_1" xmlns="http://www.w3.org/2000/svg" xmlns:xlink="http://www.w3.org/1999/xlink" x="0px"
	 y="0px" width="480px" height="480px" viewBox="0 0 480 480" style="enable-background:new 0 0 480 480;" xml:space="preserve">
<style type="text/css">
	.st0{fill:#4FFFF9;}
	.st1{fill:none;stroke:#1AFFFF;stroke-width:5;stroke-miterlimit:10;}
	.st2{stroke:#FF0000;stroke-width:5;stroke-miterlimit:10;stroke-dasharray:0,0,0,0,0,0;}
	.st3{fill:none;stroke:#F799E9;stroke-width:15;stroke-miterlimit:10;stroke-dasharray:0,0,0,0,0,0;}
	.st4{fill:none;stroke:#96FF96;stroke-width:10;stroke-miterlimit:10;}
	.st5{fill:none;stroke:#00FF00;stroke-width:10;stroke-linecap:round;stroke-miterlimit:10;stroke-dasharray:0,0,0,0,0,0;}
	.st6{fill:none;stroke:#F5F511;stroke-width:10;stroke-miterlimit:10;}
	.st7{fill:none;stroke:#F5111D;stroke-width:10;stroke-miterlimit:10;}
	.st8{fill:none;stroke:#8CC63F;stroke-width:10;stroke-miterlimit:10;}
	.st9{fill:none;stroke:#0071BC;stroke-width:10;stroke-miterlimit:10;}
	.st10{fill:none;stroke:#FF0000;stroke-width:10;stroke-miterlimit:10;}
	.st11{fill:none;stroke:#000000;stroke-width:5;stroke-miterlimit:10;}
	.st12{fill:none;stroke:#C273FF;stroke-width:5;stroke-miterlimit:10;}
	.st13{fill:none;stroke:#FF0000;stroke-width:5;stroke-miterlimit:10;}
	.st14{fill:none;stroke:#8CC63F;stroke-width:5;stroke-miterlimit:10;}
	.st15{fill:none;stroke:#44611F;stroke-width:5;stroke-miterlimit:10;}
	.st16{fill:none;stroke:#FFBFE1;stroke-width:5;stroke-miterlimit:10;stroke-dasharray:12,12,12,12,12,12;}
</style>
<circle class="st11" cx="242.71" cy="68.81" r="27"/>
<circle class="st11" cx="153.55" cy="148.11" r="27"/>
<circle class="st11" cx="330.11" cy="153.52" r="27"/>
<circle class="st11" cx="258.63" cy="240" r="27"/>
<circle class="st11" cx="330.11" cy="240" r="27"/>
<circle class="st11" cx="401.58" cy="240" r="27"/>
<circle class="st11" cx="363.2" cy="317.56" r="27"/>
<circle class="st11" cx="401.58" cy="395.12" r="27"/>
<circle class="st11" cx="446" cy="317.56" r="27"/>
<line class="st11" x1="173.46" y1="126.52" x2="218.82" y2="81.16"/>
<line class="st11" x1="266.73" y1="83.82" x2="314.19" y2="131.29"/>
<line class="st11" x1="119.65" y1="229.84" x2="153.55" y2="175.11"/>
<g>
	<circle class="st11" cx="119.65" cy="256.84" r="27"/>
	<circle class="st11" cx="76.41" cy="330.16" r="27"/>
	<circle class="st11" cx="173.46" cy="330.16" r="27"/>
	<line class="st11" x1="92.65" y1="307.4" x2="103.41" y2="278.41"/>
	<line class="st11" x1="140.58" y1="273" x2="158.95" y2="307.4"/>
</g>
<line class="st11" x1="266.73" y1="213.62" x2="311.55" y2="173.12"/>
<line class="st11" x1="350.87" y1="169.03" x2="401.58" y2="213"/>
<line class="st11" x1="330.11" y1="180.52" x2="330.11" y2="213"/>
<line class="st11" x1="363.2" y1="290.56" x2="401.58" y2="267"/>
<line class="st11" x1="392.55" y1="369.67" x2="363.2" y2="344.56"/>
<line class="st11" x1="405.79" y1="267" x2="446" y2="290.56"/>
<polygon class="st16" points="125.95,186.01 7.95,375.68 243.95,375.68 "/>
</svg>
