<?xml version="1.0" encoding="utf-8"?>
<!-- Generator: Adobe Adobe Illustrator 24.2.0, SVG Export Plug-In . SVG Version: 6.00 Build 0)  -->
<svg version="1.1" id="레이어_1" xmlns="http://www.w3.org/2000/svg" xmlns:xlink="http://www.w3.org/1999/xlink" x="0px"
	 y="0px" width="480px" height="480px" viewBox="0 0 480 480" style="enable-background:new 0 0 480 480;" xml:space="preserve">
<style type="text/css">
	.st0{fill:#4FFFF9;}
	.st1{fill:none;stroke:#1AFFFF;stroke-width:5;stroke-miterlimit:10;}
	.st2{stroke:#FF0000;stroke-width:5;stroke-miterlimit:10;stroke-dasharray:0,0,0,0,0,0;}
	.st3{fill:none;stroke:#F799E9;stroke-width:15;stroke-miterlimit:10;stroke-dasharray:0,0,0,0,0,0;}
	.st4{fill:none;stroke:#96FF96;stroke-width:10;stroke-miterlimit:10;}
	.st5{fill:none;stroke:#00FF00;stroke-width:10;stroke-linecap:round;stroke-miterlimit:10;stroke-dasharray:0,0,0,0,0,0;}
	.st6{fill:none;stroke:#F5F511;stroke-width:10;stroke-miterlimit:10;}
	.st7{fill:none;stroke:#F5111D;stroke-width:10;stroke-miterlimit:10;}
	.st8{fill:none;stroke:#8CC63F;stroke-width:10;stroke-miterlimit:10;}
	.st9{fill:none;stroke:#0071BC;stroke-width:10;stroke-miterlimit:10;}
	.st10{fill:none;stroke:#FF0000;stroke-width:10;stroke-miterlimit:10;}
	.st11{fill:none;stroke:#000000;stroke-width:5;stroke-miterlimit:10;}
	.st12{fill:none;stroke:#C273FF;stroke-width:5;stroke-miterlimit:10;}
	.st13{fill:none;stroke:#FF0000;stroke-width:5;stroke-miterlimit:10;}
	.st14{fill:none;stroke:#8CC63F;stroke-width:5;stroke-miterlimit:10;}
	.st15{fill:none;stroke:#44611F;stroke-width:5;stroke-miterlimit:10;}
	.st16{fill:none;stroke:#FFBFE1;stroke-width:5;stroke-miterlimit:10;stroke-dasharray:12,12,12,12,12,12;}
</style>
<line class="st11" x1="133.23" y1="90.9" x2="133.23" y2="392.81"/>
<line class="st11" x1="327.63" y1="88.2" x2="327.63" y2="390.12"/>
<rect x="151.06" y="327.14" class="st12" width="158.74" height="44.97"/>
<rect x="150.16" y="264.12" class="st12" width="158.74" height="44.97"/>
<rect x="151.06" y="201.1" class="st12" width="158.74" height="44.97"/>
<rect x="150.16" y="138.08" class="st12" width="158.74" height="44.97"/>
<g>
	<path class="st13" d="M56.54,22.42c30.47-12.19,66.25-10.3,95.27,5.02s50.76,43.8,57.88,75.84"/>
	<path class="st13" d="M179.08,95.64c11.76-0.67,23.71,2.51,33.55,8.93c3.06-17.57,9.1-34.62,17.8-50.22"/>
</g>
<path class="st13" d="M339.81,440.13c-35.63,2.77-73.47-2.66-100.76-14.45c-27.29-11.79-43.54-29.74-43.26-47.78"/>
<path class="st13" d="M319.74,471.27c6.73-10.89,14.98-20.17,23.18-26.06c-4.63-10.87-7.3-24.18-7.87-39.21"/>
<g>
</g>
<g>
	<g>
		<path d="M373.31,133.15h28.55v5.05h-22.75v14.42h21.32v5.05h-21.32v19.92h-5.8V133.15z"/>
		<path d="M388.43,197.01v44.43h-5.89v-44.43H388.43z"/>
		<path d="M373.31,260.87h28.55v5.05h-22.75v14.42h21.32v5.05h-21.32v19.92h-5.8V260.87z"/>
		<path d="M406.08,346.69c0,12.22-6.85,23.1-20.85,23.1c-13.08,0-20.38-10.11-20.38-22.85c0-12.71,7.45-22.85,20.89-22.85
			C398.26,324.09,406.08,333.49,406.08,346.69z M371.03,346.75c0,9.6,4.92,18.02,14.47,18.02c10.31,0,14.42-8.5,14.42-17.99
			c0-9.57-4.66-17.66-14.41-17.66C375.44,329.12,371.03,337.27,371.03,346.75z"/>
	</g>
</g>
</svg>
