<?xml version="1.0" encoding="utf-8"?>
<!-- Generator: Adobe Adobe Illustrator 24.2.0, SVG Export Plug-In . SVG Version: 6.00 Build 0)  -->
<svg version="1.1" id="레이어_1" xmlns="http://www.w3.org/2000/svg" xmlns:xlink="http://www.w3.org/1999/xlink" x="0px"
	 y="0px" width="480px" height="480px" viewBox="0 0 480 480" style="enable-background:new 0 0 480 480;" xml:space="preserve">
<style type="text/css">
	.st0{fill:#4FFFF9;}
	.st1{fill:none;stroke:#1AFFFF;stroke-width:5;stroke-miterlimit:10;}
	.st2{stroke:#FF0000;stroke-width:5;stroke-miterlimit:10;stroke-dasharray:0,0,0,0,0,0;}
	.st3{fill:none;stroke:#F799E9;stroke-width:15;stroke-miterlimit:10;stroke-dasharray:0,0,0,0,0,0;}
	.st4{fill:none;stroke:#96FF96;stroke-width:10;stroke-miterlimit:10;}
	.st5{fill:none;stroke:#00FF00;stroke-width:10;stroke-linecap:round;stroke-miterlimit:10;stroke-dasharray:0,0,0,0,0,0;}
	.st6{fill:none;stroke:#F5F511;stroke-width:10;stroke-miterlimit:10;}
	.st7{fill:none;stroke:#F5111D;stroke-width:10;stroke-miterlimit:10;}
	.st8{fill:none;stroke:#8CC63F;stroke-width:10;stroke-miterlimit:10;}
	.st9{fill:none;stroke:#0071BC;stroke-width:10;stroke-miterlimit:10;}
	.st10{fill:none;stroke:#FF0000;stroke-width:10;stroke-miterlimit:10;}
	.st11{fill:none;stroke:#000000;stroke-width:5;stroke-miterlimit:10;}
	.st12{fill:none;stroke:#C273FF;stroke-width:5;stroke-miterlimit:10;}
	.st13{fill:none;stroke:#FF0000;stroke-width:5;stroke-miterlimit:10;}
	.st14{fill:none;stroke:#8CC63F;stroke-width:5;stroke-miterlimit:10;}
	.st15{fill:none;stroke:#44611F;stroke-width:5;stroke-miterlimit:10;}
	.st16{fill:none;stroke:#FFBFE1;stroke-width:5;stroke-miterlimit:10;stroke-dasharray:12,12,12,12,12,12;}
</style>
<g>
	<rect x="165.09" y="59.01" class="st6" width="113.03" height="58.51"/>
	<line class="st6" x1="184.02" y1="29.82" x2="293.31" y2="29.82"/>
	<line class="st6" x1="278.12" y1="59.01" x2="293.31" y2="29.82"/>
	<path class="st6" d="M293.31,29.82c-0.16,23.19-0.16,47.19,0,70.15"/>
	<line class="st6" x1="278.51" y1="117.52" x2="295.46" y2="88.27"/>
	<rect x="165.09" y="59.01" class="st6" width="113.03" height="58.51"/>
	<line class="st6" x1="278.12" y1="59.01" x2="293.31" y2="29.82"/>
	<path class="st6" d="M293.31,29.82c-0.16,23.19-0.16,47.19,0,70.15"/>
	<line class="st6" x1="278.51" y1="117.52" x2="295.46" y2="88.27"/>
	<rect x="165.09" y="59.01" class="st6" width="113.03" height="58.51"/>
	<line class="st6" x1="278.12" y1="59.01" x2="293.31" y2="29.82"/>
	<path class="st6" d="M293.31,29.82c-0.16,23.19-0.16,47.19,0,70.15"/>
	<line class="st6" x1="278.51" y1="117.52" x2="295.46" y2="88.27"/>
	<path class="st6" d="M163.41,59.01c6.31-11.26,12.98-22.32,19.45-33.49"/>
</g>
<g>
	<rect x="165.11" y="217.15" class="st6" width="113.03" height="58.51"/>
	<line class="st6" x1="184.04" y1="187.96" x2="293.33" y2="187.96"/>
	<line class="st6" x1="278.14" y1="217.15" x2="293.33" y2="187.96"/>
	<path class="st6" d="M293.33,187.96c-0.16,23.19-0.16,47.19,0,70.15"/>
	<line class="st6" x1="278.53" y1="275.66" x2="295.48" y2="246.41"/>
	<rect x="165.11" y="217.15" class="st6" width="113.03" height="58.51"/>
	<line class="st6" x1="278.14" y1="217.15" x2="293.33" y2="187.96"/>
	<path class="st6" d="M293.33,187.96c-0.16,23.19-0.16,47.19,0,70.15"/>
	<line class="st6" x1="278.53" y1="275.66" x2="295.48" y2="246.41"/>
	<rect x="165.11" y="217.15" class="st6" width="113.03" height="58.51"/>
	<line class="st6" x1="278.14" y1="217.15" x2="293.33" y2="187.96"/>
	<path class="st6" d="M293.33,187.96c-0.16,23.19-0.16,47.19,0,70.15"/>
	<line class="st6" x1="278.53" y1="275.66" x2="295.48" y2="246.41"/>
	<path class="st6" d="M163.43,217.15c6.31-11.26,12.98-22.32,19.45-33.49"/>
</g>
<g>
	<rect x="165.47" y="381.99" class="st6" width="113.03" height="58.51"/>
	<line class="st6" x1="184.4" y1="352.8" x2="293.69" y2="352.8"/>
	<line class="st6" x1="278.5" y1="381.99" x2="293.69" y2="352.8"/>
	<path class="st6" d="M293.69,352.8c-0.16,23.19-0.16,47.19,0,70.15"/>
	<line class="st6" x1="278.89" y1="440.51" x2="295.84" y2="411.25"/>
	<rect x="165.47" y="381.99" class="st6" width="113.03" height="58.51"/>
	<line class="st6" x1="278.5" y1="381.99" x2="293.69" y2="352.8"/>
	<path class="st6" d="M293.69,352.8c-0.16,23.19-0.16,47.19,0,70.15"/>
	<line class="st6" x1="278.89" y1="440.51" x2="295.84" y2="411.25"/>
	<rect x="165.47" y="381.99" class="st6" width="113.03" height="58.51"/>
	<line class="st6" x1="278.5" y1="381.99" x2="293.69" y2="352.8"/>
	<path class="st6" d="M293.69,352.8c-0.16,23.19-0.16,47.19,0,70.15"/>
	<line class="st6" x1="278.89" y1="440.51" x2="295.84" y2="411.25"/>
	<path class="st6" d="M163.79,381.99c6.31-11.26,12.98-22.32,19.45-33.49"/>
	<path class="st10" d="M221.73,187.96c0.07,3.49,0.15,6.97,0.22,10.46"/>
</g>
<line class="st10" x1="222.9" y1="117.52" x2="223.28" y2="187.96"/>
<line class="st10" x1="222.9" y1="275.66" x2="226.14" y2="346.68"/>
<path class="st10" d="M203.49,332.35c8.19,3.04,15.91,7.92,22.65,14.33c3.84-11.29,12.05-20.26,21.7-23.7"/>
<path class="st10" d="M200.73,178.68c8.19,3.04,15.91,7.92,22.65,14.33c3.84-11.29,12.05-20.26,21.7-23.7"/>
</svg>
