<?xml version="1.0" encoding="utf-8"?>
<!-- Generator: Adobe Adobe Illustrator 24.2.0, SVG Export Plug-In . SVG Version: 6.00 Build 0)  -->
<svg version="1.1" id="레이어_1" xmlns="http://www.w3.org/2000/svg" xmlns:xlink="http://www.w3.org/1999/xlink" x="0px"
	 y="0px" width="480px" height="480px" viewBox="0 0 480 480" style="enable-background:new 0 0 480 480;" xml:space="preserve">
<style type="text/css">
	.st0{fill:#4FFFF9;}
	.st1{fill:none;stroke:#1AFFFF;stroke-width:5;stroke-miterlimit:10;}
	.st2{stroke:#FF0000;stroke-width:5;stroke-miterlimit:10;stroke-dasharray:0,0,0,0,0,0;}
	.st3{fill:none;stroke:#F799E9;stroke-width:15;stroke-miterlimit:10;stroke-dasharray:0,0,0,0,0,0;}
	.st4{fill:none;stroke:#96FF96;stroke-width:10;stroke-miterlimit:10;}
	.st5{fill:none;stroke:#00FF00;stroke-width:10;stroke-linecap:round;stroke-miterlimit:10;stroke-dasharray:0,0,0,0,0,0;}
	.st6{fill:none;stroke:#F5F511;stroke-width:10;stroke-miterlimit:10;}
	.st7{fill:none;stroke:#F5111D;stroke-width:10;stroke-miterlimit:10;}
	.st8{fill:none;stroke:#8CC63F;stroke-width:10;stroke-miterlimit:10;}
	.st9{fill:none;stroke:#0071BC;stroke-width:10;stroke-miterlimit:10;}
	.st10{fill:none;stroke:#FF0000;stroke-width:10;stroke-miterlimit:10;}
	.st11{fill:none;stroke:#000000;stroke-width:5;stroke-miterlimit:10;}
	.st12{fill:none;stroke:#C273FF;stroke-width:5;stroke-miterlimit:10;}
	.st13{fill:none;stroke:#FF0000;stroke-width:5;stroke-miterlimit:10;}
	.st14{fill:none;stroke:#8CC63F;stroke-width:5;stroke-miterlimit:10;}
	.st15{fill:none;stroke:#44611F;stroke-width:5;stroke-miterlimit:10;}
	.st16{fill:none;stroke:#FFBFE1;stroke-width:5;stroke-miterlimit:10;stroke-dasharray:12,12,12,12,12,12;}
</style>
<rect x="164.42" y="120.97" class="st6" width="114.59" height="53.97"/>
<line class="st6" x1="183.62" y1="94.05" x2="294.4" y2="94.05"/>
<line class="st6" x1="279.01" y1="120.97" x2="294.4" y2="94.05"/>
<path class="st6" d="M294.4,94.05c-0.16,21.39-0.16,43.53,0,64.71"/>
<line class="st6" x1="279.4" y1="174.94" x2="296.58" y2="147.96"/>
<rect x="164.42" y="120.97" class="st6" width="114.59" height="53.97"/>
<line class="st6" x1="279.01" y1="120.97" x2="294.4" y2="94.05"/>
<path class="st6" d="M294.4,94.05c-0.16,21.39-0.16,43.53,0,64.71"/>
<line class="st6" x1="279.4" y1="174.94" x2="296.58" y2="147.96"/>
<rect x="164.42" y="120.97" class="st6" width="114.59" height="53.97"/>
<line class="st6" x1="279.01" y1="120.97" x2="294.4" y2="94.05"/>
<path class="st6" d="M294.4,94.05c-0.16,21.39-0.16,43.53,0,64.71"/>
<line class="st6" x1="279.4" y1="174.94" x2="296.58" y2="147.96"/>
<line class="st6" x1="164.42" y1="120.97" x2="183.62" y2="94.05"/>
<rect x="164.42" y="248.41" class="st6" width="114.59" height="53.97"/>
<line class="st6" x1="183.62" y1="221.48" x2="294.4" y2="221.48"/>
<line class="st6" x1="279.01" y1="248.41" x2="294.4" y2="221.48"/>
<path class="st6" d="M294.4,221.48c-0.16,21.39-0.16,43.53,0,64.71"/>
<line class="st6" x1="279.4" y1="302.38" x2="296.58" y2="275.39"/>
<rect x="164.42" y="248.41" class="st6" width="114.59" height="53.97"/>
<line class="st6" x1="279.01" y1="248.41" x2="294.4" y2="221.48"/>
<path class="st6" d="M294.4,221.48c-0.16,21.39-0.16,43.53,0,64.71"/>
<line class="st6" x1="279.4" y1="302.38" x2="296.58" y2="275.39"/>
<rect x="164.42" y="248.41" class="st6" width="114.59" height="53.97"/>
<line class="st6" x1="279.01" y1="248.41" x2="294.4" y2="221.48"/>
<path class="st6" d="M294.4,221.48c-0.16,21.39-0.16,43.53,0,64.71"/>
<line class="st6" x1="279.4" y1="302.38" x2="296.58" y2="275.39"/>
<line class="st6" x1="164.42" y1="248.41" x2="183.62" y2="221.48"/>
<rect x="164.42" y="375.84" class="st6" width="114.59" height="53.97"/>
<line class="st6" x1="183.62" y1="348.92" x2="294.4" y2="348.92"/>
<line class="st6" x1="279.01" y1="375.84" x2="294.4" y2="348.92"/>
<path class="st6" d="M294.4,348.92c-0.16,21.39-0.16,43.53,0,64.71"/>
<line class="st6" x1="279.4" y1="429.81" x2="296.58" y2="402.83"/>
<rect x="164.42" y="375.84" class="st6" width="114.59" height="53.97"/>
<line class="st6" x1="279.01" y1="375.84" x2="294.4" y2="348.92"/>
<path class="st6" d="M294.4,348.92c-0.16,21.39-0.16,43.53,0,64.71"/>
<line class="st6" x1="279.4" y1="429.81" x2="296.58" y2="402.83"/>
<rect x="164.42" y="375.84" class="st6" width="114.59" height="53.97"/>
<line class="st6" x1="279.01" y1="375.84" x2="294.4" y2="348.92"/>
<path class="st6" d="M294.4,348.92c-0.16,21.39-0.16,43.53,0,64.71"/>
<line class="st6" x1="279.4" y1="429.81" x2="296.58" y2="402.83"/>
<line class="st6" x1="164.42" y1="375.84" x2="183.62" y2="348.92"/>
<line class="st7" x1="221.71" y1="429.81" x2="221.71" y2="464.82"/>
<line class="st7" x1="218.07" y1="464.82" x2="385" y2="464.82"/>
<line class="st7" x1="381.12" y1="464.82" x2="381.12" y2="17.47"/>
<line class="st7" x1="210.55" y1="23.44" x2="382.61" y2="23.43"/>
<line class="st7" x1="213" y1="23.44" x2="213" y2="83.82"/>
<path class="st7" d="M187.62,66.6c12.26,1.8,23.21,10.73,27.44,22.38c6.67-12.52,15.7-23.79,26.48-33.02"/>
<path class="st8" d="M209.67,171.17c1.02,12.66,1.31,25.38,0.87,38.08c0.2-1.19,0.4-2.38,0.59-3.57"/>
<path class="st8" d="M192.83,200.89c5.05,4.55,10.1,9.1,15.15,13.65c0.9,0.81,1.9,1.67,3.11,1.77c1.43,0.12,2.71-0.83,3.79-1.78
	c5.59-4.88,10.2-10.88,13.48-17.54"/>
<path class="st8" d="M208.53,301.06c1.36,12.85,1.87,25.8,1.53,38.72c-0.01,0.48,0.07,1.1,0.54,1.23c0.47,0.12,0.48-0.93,0.09-0.65"
	/>
<path class="st8" d="M196.52,329.88c4.93,5.03,9.86,10.06,14.79,15.1c4.9-7.21,10.08-14.23,15.5-21.06"/>
<path class="st9" d="M248.29,178.74c1.64,12.03,2.44,24.18,2.37,36.33"/>
<path class="st9" d="M236.14,190.68c5.16-4.81,9.27-10.73,11.96-17.24c3.44,4,7.49,7.48,11.96,10.28c1.32,0.83,2.85,1.63,4.37,1.26"
	/>
<path class="st9" d="M244.11,305.26c0.59,12.9,0.86,25.82,0.8,38.73"/>
<path class="st9" d="M229.39,314.58c6.18-4.71,12.03-9.87,17.47-15.42c2.85,6.51,7.93,12.01,14.18,15.38"/>
<rect x="164.42" y="120.97" class="st6" width="114.59" height="53.97"/>
<line class="st6" x1="183.62" y1="94.05" x2="294.4" y2="94.05"/>
<line class="st6" x1="279.01" y1="120.97" x2="294.4" y2="94.05"/>
<path class="st6" d="M294.4,94.05c-0.16,21.39-0.16,43.53,0,64.71"/>
<line class="st6" x1="279.4" y1="174.94" x2="296.58" y2="147.96"/>
<rect x="164.42" y="120.97" class="st6" width="114.59" height="53.97"/>
<line class="st6" x1="279.01" y1="120.97" x2="294.4" y2="94.05"/>
<path class="st6" d="M294.4,94.05c-0.16,21.39-0.16,43.53,0,64.71"/>
<line class="st6" x1="279.4" y1="174.94" x2="296.58" y2="147.96"/>
<rect x="164.42" y="120.97" class="st6" width="114.59" height="53.97"/>
<line class="st6" x1="279.01" y1="120.97" x2="294.4" y2="94.05"/>
<path class="st6" d="M294.4,94.05c-0.16,21.39-0.16,43.53,0,64.71"/>
<line class="st6" x1="279.4" y1="174.94" x2="296.58" y2="147.96"/>
<line class="st6" x1="164.42" y1="120.97" x2="183.62" y2="94.05"/>
<rect x="164.42" y="248.41" class="st6" width="114.59" height="53.97"/>
<line class="st6" x1="183.62" y1="221.48" x2="294.4" y2="221.48"/>
<line class="st6" x1="279.01" y1="248.41" x2="294.4" y2="221.48"/>
<path class="st6" d="M294.4,221.48c-0.16,21.39-0.16,43.53,0,64.71"/>
<line class="st6" x1="279.4" y1="302.38" x2="296.58" y2="275.39"/>
<rect x="164.42" y="248.41" class="st6" width="114.59" height="53.97"/>
<line class="st6" x1="279.01" y1="248.41" x2="294.4" y2="221.48"/>
<path class="st6" d="M294.4,221.48c-0.16,21.39-0.16,43.53,0,64.71"/>
<line class="st6" x1="279.4" y1="302.38" x2="296.58" y2="275.39"/>
<rect x="164.42" y="248.41" class="st6" width="114.59" height="53.97"/>
<line class="st6" x1="279.01" y1="248.41" x2="294.4" y2="221.48"/>
<path class="st6" d="M294.4,221.48c-0.16,21.39-0.16,43.53,0,64.71"/>
<line class="st6" x1="279.4" y1="302.38" x2="296.58" y2="275.39"/>
<line class="st6" x1="164.42" y1="248.41" x2="183.62" y2="221.48"/>
<rect x="164.42" y="375.84" class="st6" width="114.59" height="53.97"/>
<line class="st6" x1="183.62" y1="348.92" x2="294.4" y2="348.92"/>
<line class="st6" x1="279.01" y1="375.84" x2="294.4" y2="348.92"/>
<path class="st6" d="M294.4,348.92c-0.16,21.39-0.16,43.53,0,64.71"/>
<line class="st6" x1="279.4" y1="429.81" x2="296.58" y2="402.83"/>
<rect x="164.42" y="375.84" class="st6" width="114.59" height="53.97"/>
<line class="st6" x1="279.01" y1="375.84" x2="294.4" y2="348.92"/>
<path class="st6" d="M294.4,348.92c-0.16,21.39-0.16,43.53,0,64.71"/>
<line class="st6" x1="279.4" y1="429.81" x2="296.58" y2="402.83"/>
<rect x="164.42" y="375.84" class="st6" width="114.59" height="53.97"/>
<line class="st6" x1="279.01" y1="375.84" x2="294.4" y2="348.92"/>
<path class="st6" d="M294.4,348.92c-0.16,21.39-0.16,43.53,0,64.71"/>
<line class="st6" x1="279.4" y1="429.81" x2="296.58" y2="402.83"/>
<line class="st6" x1="164.42" y1="375.84" x2="183.62" y2="348.92"/>
<line class="st7" x1="221.71" y1="429.81" x2="221.71" y2="464.82"/>
<line class="st7" x1="381.12" y1="464.82" x2="381.12" y2="17.47"/>
<line class="st7" x1="210.55" y1="23.44" x2="382.61" y2="23.43"/>
<line class="st7" x1="213" y1="23.44" x2="213" y2="83.82"/>
<path class="st7" d="M187.62,66.6c12.26,1.8,23.21,10.73,27.44,22.38c6.67-12.52,15.7-23.79,26.48-33.02"/>
<path class="st8" d="M209.67,171.17c1.02,12.66,1.31,25.38,0.87,38.08c0.2-1.19,0.4-2.38,0.59-3.57"/>
<path class="st8" d="M192.83,200.89c5.05,4.55,10.1,9.1,15.15,13.65c0.9,0.81,1.9,1.67,3.11,1.77c1.43,0.12,2.71-0.83,3.79-1.78
	c5.59-4.88,10.2-10.88,13.48-17.54"/>
<path class="st8" d="M208.53,301.06c1.36,12.85,1.87,25.8,1.53,38.72c-0.01,0.48,0.07,1.1,0.54,1.23c0.47,0.12,0.48-0.93,0.09-0.65"
	/>
<path class="st8" d="M196.52,329.88c4.93,5.03,9.86,10.06,14.79,15.1c4.9-7.21,10.08-14.23,15.5-21.06"/>
<path class="st9" d="M248.29,178.74c1.64,12.03,2.44,24.18,2.37,36.33"/>
<path class="st9" d="M236.14,190.68c5.16-4.81,9.27-10.73,11.96-17.24c3.44,4,7.49,7.48,11.96,10.28c1.32,0.83,2.85,1.63,4.37,1.26"
	/>
<path class="st9" d="M244.11,305.26c0.59,12.9,0.86,25.82,0.8,38.73"/>
<path class="st9" d="M229.39,314.58c6.18-4.71,12.03-9.87,17.47-15.42c2.85,6.51,7.93,12.01,14.18,15.38"/>
</svg>
