<?xml version="1.0" encoding="utf-8"?>
<!-- Generator: Adobe Adobe Illustrator 24.2.0, SVG Export Plug-In . SVG Version: 6.00 Build 0)  -->
<svg version="1.1" id="레이어_1" xmlns="http://www.w3.org/2000/svg" xmlns:xlink="http://www.w3.org/1999/xlink" x="0px"
	 y="0px" width="480px" height="480px" viewBox="0 0 480 480" style="enable-background:new 0 0 480 480;" xml:space="preserve">
<style type="text/css">
	.st0{fill:#4FFFF9;}
	.st1{fill:none;stroke:#1AFFFF;stroke-width:5;stroke-miterlimit:10;}
	.st2{stroke:#FF0000;stroke-width:5;stroke-miterlimit:10;stroke-dasharray:0,0,0,0,0,0;}
	.st3{fill:none;stroke:#F799E9;stroke-width:15;stroke-miterlimit:10;stroke-dasharray:0,0,0,0,0,0;}
	.st4{fill:none;stroke:#96FF96;stroke-width:10;stroke-miterlimit:10;}
	.st5{fill:none;stroke:#00FF00;stroke-width:10;stroke-linecap:round;stroke-miterlimit:10;stroke-dasharray:0,0,0,0,0,0;}
	.st6{fill:none;stroke:#F5F511;stroke-width:10;stroke-miterlimit:10;}
	.st7{fill:none;stroke:#F5111D;stroke-width:10;stroke-miterlimit:10;}
	.st8{fill:none;stroke:#8CC63F;stroke-width:10;stroke-miterlimit:10;}
	.st9{fill:none;stroke:#0071BC;stroke-width:10;stroke-miterlimit:10;}
	.st10{fill:none;stroke:#FF0000;stroke-width:10;stroke-miterlimit:10;}
	.st11{fill:none;stroke:#000000;stroke-width:5;stroke-miterlimit:10;}
	.st12{fill:none;stroke:#C273FF;stroke-width:5;stroke-miterlimit:10;}
	.st13{fill:none;stroke:#FF0000;stroke-width:5;stroke-miterlimit:10;}
	.st14{fill:none;stroke:#8CC63F;stroke-width:5;stroke-miterlimit:10;}
	.st15{fill:none;stroke:#44611F;stroke-width:5;stroke-miterlimit:10;}
	.st16{fill:none;stroke:#FFBFE1;stroke-width:5;stroke-miterlimit:10;stroke-dasharray:12,12,12,12,12,12;}
</style>
<rect x="134.66" y="109.79" class="st6" width="114.59" height="53.97"/>
<line class="st6" x1="153.85" y1="82.86" x2="264.64" y2="82.86"/>
<line class="st6" x1="249.24" y1="109.79" x2="264.64" y2="82.86"/>
<path class="st6" d="M264.64,82.86c-0.16,21.39-0.16,43.53,0,64.71"/>
<line class="st6" x1="249.64" y1="163.76" x2="266.82" y2="136.77"/>
<rect x="134.66" y="109.79" class="st6" width="114.59" height="53.97"/>
<line class="st6" x1="249.24" y1="109.79" x2="264.64" y2="82.86"/>
<path class="st6" d="M264.64,82.86c-0.16,21.39-0.16,43.53,0,64.71"/>
<line class="st6" x1="249.64" y1="163.76" x2="266.82" y2="136.77"/>
<rect x="134.66" y="109.79" class="st6" width="114.59" height="53.97"/>
<line class="st6" x1="249.24" y1="109.79" x2="264.64" y2="82.86"/>
<path class="st6" d="M264.64,82.86c-0.16,21.39-0.16,43.53,0,64.71"/>
<line class="st6" x1="249.64" y1="163.76" x2="266.82" y2="136.77"/>
<line class="st6" x1="134.66" y1="109.79" x2="153.85" y2="82.86"/>
<rect x="134.66" y="237.23" class="st6" width="114.59" height="53.97"/>
<line class="st6" x1="153.85" y1="210.3" x2="264.64" y2="210.3"/>
<line class="st6" x1="249.24" y1="237.23" x2="264.64" y2="210.3"/>
<path class="st6" d="M264.64,210.3c-0.16,21.39-0.16,43.53,0,64.71"/>
<line class="st6" x1="249.64" y1="291.19" x2="266.82" y2="264.21"/>
<rect x="134.66" y="237.23" class="st6" width="114.59" height="53.97"/>
<line class="st6" x1="249.24" y1="237.23" x2="264.64" y2="210.3"/>
<path class="st6" d="M264.64,210.3c-0.16,21.39-0.16,43.53,0,64.71"/>
<line class="st6" x1="249.64" y1="291.19" x2="266.82" y2="264.21"/>
<rect x="134.66" y="237.23" class="st6" width="114.59" height="53.97"/>
<line class="st6" x1="249.24" y1="237.23" x2="264.64" y2="210.3"/>
<path class="st6" d="M264.64,210.3c-0.16,21.39-0.16,43.53,0,64.71"/>
<line class="st6" x1="249.64" y1="291.19" x2="266.82" y2="264.21"/>
<line class="st6" x1="134.66" y1="237.23" x2="153.85" y2="210.3"/>
<rect x="134.66" y="364.66" class="st6" width="114.59" height="53.97"/>
<line class="st6" x1="153.85" y1="337.74" x2="264.64" y2="337.74"/>
<line class="st6" x1="249.24" y1="364.66" x2="264.64" y2="337.74"/>
<path class="st6" d="M264.64,337.74c-0.16,21.39-0.16,43.53,0,64.71"/>
<line class="st6" x1="249.64" y1="418.63" x2="266.82" y2="391.65"/>
<rect x="134.66" y="364.66" class="st6" width="114.59" height="53.97"/>
<line class="st6" x1="249.24" y1="364.66" x2="264.64" y2="337.74"/>
<path class="st6" d="M264.64,337.74c-0.16,21.39-0.16,43.53,0,64.71"/>
<line class="st6" x1="249.64" y1="418.63" x2="266.82" y2="391.65"/>
<rect x="134.66" y="364.66" class="st6" width="114.59" height="53.97"/>
<line class="st6" x1="249.24" y1="364.66" x2="264.64" y2="337.74"/>
<path class="st6" d="M264.64,337.74c-0.16,21.39-0.16,43.53,0,64.71"/>
<line class="st6" x1="249.64" y1="418.63" x2="266.82" y2="391.65"/>
<line class="st6" x1="134.66" y1="364.66" x2="153.85" y2="337.74"/>
<line class="st7" x1="191.95" y1="418.63" x2="191.95" y2="453.64"/>
<line class="st7" x1="351.36" y1="453.64" x2="351.36" y2="6.28"/>
<line class="st7" x1="180.79" y1="12.25" x2="352.85" y2="12.25"/>
<line class="st7" x1="186" y1="450.66" x2="358.06" y2="450.66"/>
<line class="st7" x1="183.24" y1="12.25" x2="183.24" y2="72.64"/>
<path class="st7" d="M157.85,55.42c12.26,1.8,23.21,10.73,27.44,22.38c6.67-12.52,15.7-23.79,26.48-33.02"/>
<g>
	<line class="st10" x1="194.88" y1="160.55" x2="198.11" y2="210.3"/>
	<path class="st10" d="M175.46,200.26c8.19,2.13,15.91,5.55,22.65,10.04c3.84-7.91,12.05-14.19,21.7-16.61"/>
</g>
<g>
	<line class="st10" x1="196.51" y1="282.33" x2="199.75" y2="332.09"/>
	<path class="st10" d="M177.1,322.05c8.19,2.13,15.91,5.55,22.65,10.04c3.84-7.91,12.05-14.19,21.7-16.61"/>
</g>
</svg>
