<?xml version="1.0" encoding="utf-8"?>
<!-- Generator: Adobe Adobe Illustrator 24.2.0, SVG Export Plug-In . SVG Version: 6.00 Build 0)  -->
<svg version="1.1" id="레이어_1" xmlns="http://www.w3.org/2000/svg" xmlns:xlink="http://www.w3.org/1999/xlink" x="0px"
	 y="0px" width="480px" height="480px" viewBox="0 0 480 480" style="enable-background:new 0 0 480 480;" xml:space="preserve">
<style type="text/css">
	.st0{fill:#4FFFF9;}
	.st1{fill:none;stroke:#1AFFFF;stroke-width:5;stroke-miterlimit:10;}
	.st2{stroke:#FF0000;stroke-width:5;stroke-miterlimit:10;stroke-dasharray:0,0,0,0,0,0;}
	.st3{fill:none;stroke:#F799E9;stroke-width:15;stroke-miterlimit:10;stroke-dasharray:0,0,0,0,0,0;}
	.st4{fill:none;stroke:#96FF96;stroke-width:10;stroke-miterlimit:10;}
	.st5{fill:none;stroke:#00FF00;stroke-width:10;stroke-linecap:round;stroke-miterlimit:10;stroke-dasharray:0,0,0,0,0,0;}
	.st6{fill:none;stroke:#F5F511;stroke-width:10;stroke-miterlimit:10;}
	.st7{fill:none;stroke:#F5111D;stroke-width:10;stroke-miterlimit:10;}
	.st8{fill:none;stroke:#8CC63F;stroke-width:10;stroke-miterlimit:10;}
	.st9{fill:none;stroke:#0071BC;stroke-width:10;stroke-miterlimit:10;}
	.st10{fill:none;stroke:#FF0000;stroke-width:10;stroke-miterlimit:10;}
	.st11{fill:none;stroke:#000000;stroke-width:5;stroke-miterlimit:10;}
	.st12{fill:none;stroke:#C273FF;stroke-width:5;stroke-miterlimit:10;}
	.st13{fill:none;stroke:#FF0000;stroke-width:5;stroke-miterlimit:10;}
	.st14{fill:none;stroke:#8CC63F;stroke-width:5;stroke-miterlimit:10;}
	.st15{fill:none;stroke:#44611F;stroke-width:5;stroke-miterlimit:10;}
	.st16{fill:none;stroke:#FFBFE1;stroke-width:5;stroke-miterlimit:10;stroke-dasharray:12,12,12,12,12,12;}
</style>
<g>
	<rect x="168.87" y="65.98" class="st6" width="113.03" height="58.51"/>
	<line class="st6" x1="187.8" y1="36.79" x2="297.09" y2="36.79"/>
	<line class="st6" x1="281.9" y1="65.98" x2="297.09" y2="36.79"/>
	<path class="st6" d="M297.09,36.79c-0.16,23.19-0.16,47.19,0,70.15"/>
	<line class="st6" x1="282.29" y1="124.49" x2="299.24" y2="95.24"/>
	<rect x="168.87" y="65.98" class="st6" width="113.03" height="58.51"/>
	<line class="st6" x1="281.9" y1="65.98" x2="297.09" y2="36.79"/>
	<path class="st6" d="M297.09,36.79c-0.16,23.19-0.16,47.19,0,70.15"/>
	<line class="st6" x1="282.29" y1="124.49" x2="299.24" y2="95.24"/>
	<rect x="168.87" y="65.98" class="st6" width="113.03" height="58.51"/>
	<line class="st6" x1="281.9" y1="65.98" x2="297.09" y2="36.79"/>
	<path class="st6" d="M297.09,36.79c-0.16,23.19-0.16,47.19,0,70.15"/>
	<line class="st6" x1="282.29" y1="124.49" x2="299.24" y2="95.24"/>
	<path class="st6" d="M167.19,65.98c6.31-11.26,12.98-22.32,19.45-33.49"/>
</g>
<g>
	<rect x="172.6" y="387.14" class="st6" width="113.03" height="58.51"/>
	<line class="st6" x1="191.54" y1="357.95" x2="300.83" y2="357.95"/>
	<line class="st6" x1="285.64" y1="387.14" x2="300.83" y2="357.95"/>
	<path class="st6" d="M300.83,357.95c-0.16,23.19-0.16,47.19,0,70.15"/>
	<line class="st6" x1="286.03" y1="445.65" x2="302.97" y2="416.39"/>
	<rect x="172.6" y="387.14" class="st6" width="113.03" height="58.51"/>
	<line class="st6" x1="285.64" y1="387.14" x2="300.83" y2="357.95"/>
	<path class="st6" d="M300.83,357.95c-0.16,23.19-0.16,47.19,0,70.15"/>
	<line class="st6" x1="286.03" y1="445.65" x2="302.97" y2="416.39"/>
	<rect x="172.6" y="387.14" class="st6" width="113.03" height="58.51"/>
	<line class="st6" x1="285.64" y1="387.14" x2="300.83" y2="357.95"/>
	<path class="st6" d="M300.83,357.95c-0.16,23.19-0.16,47.19,0,70.15"/>
	<line class="st6" x1="286.03" y1="445.65" x2="302.97" y2="416.39"/>
	<path class="st6" d="M170.92,387.14c6.31-11.26,12.98-22.32,19.45-33.49"/>
</g>
<g>
	<rect x="168.89" y="224.12" class="st6" width="113.03" height="58.51"/>
	<line class="st6" x1="187.82" y1="194.93" x2="297.11" y2="194.93"/>
	<line class="st6" x1="281.92" y1="224.12" x2="297.11" y2="194.93"/>
	<path class="st6" d="M297.11,194.93c-0.16,23.19-0.16,47.19,0,70.15"/>
	<line class="st6" x1="282.31" y1="282.63" x2="299.26" y2="253.38"/>
	<rect x="168.89" y="224.12" class="st6" width="113.03" height="58.51"/>
	<line class="st6" x1="281.92" y1="224.12" x2="297.11" y2="194.93"/>
	<path class="st6" d="M297.11,194.93c-0.16,23.19-0.16,47.19,0,70.15"/>
	<line class="st6" x1="282.31" y1="282.63" x2="299.26" y2="253.38"/>
	<rect x="168.89" y="224.12" class="st6" width="113.03" height="58.51"/>
	<line class="st6" x1="281.92" y1="224.12" x2="297.11" y2="194.93"/>
	<path class="st6" d="M297.11,194.93c-0.16,23.19-0.16,47.19,0,70.15"/>
	<line class="st6" x1="282.31" y1="282.63" x2="299.26" y2="253.38"/>
	<path class="st6" d="M167.21,224.12c6.31-11.26,12.98-22.32,19.45-33.49"/>
</g>
<line class="st10" x1="197.68" y1="122.89" x2="198.16" y2="193.66"/>
<g>
	<line class="st10" x1="204.68" y1="280.13" x2="207.91" y2="351.15"/>
	<path class="st10" d="M185.26,336.82c8.19,3.04,15.91,7.92,22.65,14.33c3.84-11.29,12.05-20.26,21.7-23.7"/>
</g>
<g>
	<line class="st10" x1="257" y1="355.61" x2="256.06" y2="284.52"/>
	<path class="st10" d="M278.24,299.57c-8.09-3.3-15.64-8.43-22.18-15.05c-4.2,11.16-12.7,19.86-22.46,22.99"/>
</g>
<g>
	<line class="st10" x1="252.77" y1="200.58" x2="251.83" y2="129.49"/>
	<path class="st10" d="M274,144.55c-8.09-3.3-15.64-8.43-22.18-15.05c-4.2,11.16-12.7,19.86-22.46,22.99"/>
</g>
<path class="st10" d="M175.51,179.33c8.19,3.04,15.91,7.92,22.65,14.33c3.84-11.29,12.05-20.26,21.7-23.7"/>
</svg>
