<?xml version="1.0" encoding="utf-8"?>
<!-- Generator: Adobe Adobe Illustrator 24.2.0, SVG Export Plug-In . SVG Version: 6.00 Build 0)  -->
<svg version="1.1" id="레이어_1" xmlns="http://www.w3.org/2000/svg" xmlns:xlink="http://www.w3.org/1999/xlink" x="0px"
	 y="0px" width="480px" height="480px" viewBox="0 0 480 480" style="enable-background:new 0 0 480 480;" xml:space="preserve">
<style type="text/css">
	.st0{fill:#4FFFF9;}
	.st1{fill:none;stroke:#1AFFFF;stroke-width:5;stroke-miterlimit:10;}
	.st2{stroke:#FF0000;stroke-width:5;stroke-miterlimit:10;stroke-dasharray:0,0,0,0,0,0;}
	.st3{fill:none;stroke:#F799E9;stroke-width:15;stroke-miterlimit:10;stroke-dasharray:0,0,0,0,0,0;}
	.st4{fill:none;stroke:#96FF96;stroke-width:10;stroke-miterlimit:10;}
	.st5{fill:none;stroke:#00FF00;stroke-width:10;stroke-linecap:round;stroke-miterlimit:10;stroke-dasharray:0,0,0,0,0,0;}
	.st6{fill:none;stroke:#F5F511;stroke-width:10;stroke-miterlimit:10;}
	.st7{fill:none;stroke:#F5111D;stroke-width:10;stroke-miterlimit:10;}
	.st8{fill:none;stroke:#8CC63F;stroke-width:10;stroke-miterlimit:10;}
	.st9{fill:none;stroke:#0071BC;stroke-width:10;stroke-miterlimit:10;}
	.st10{fill:none;stroke:#FF0000;stroke-width:10;stroke-miterlimit:10;}
	.st11{fill:none;stroke:#000000;stroke-width:5;stroke-miterlimit:10;}
	.st12{fill:none;stroke:#C273FF;stroke-width:5;stroke-miterlimit:10;}
	.st13{fill:none;stroke:#FF0000;stroke-width:5;stroke-miterlimit:10;}
	.st14{fill:none;stroke:#8CC63F;stroke-width:5;stroke-miterlimit:10;}
	.st15{fill:none;stroke:#44611F;stroke-width:5;stroke-miterlimit:10;}
	.st16{fill:none;stroke:#FFBFE1;stroke-width:5;stroke-miterlimit:10;stroke-dasharray:12,12,12,12,12,12;}
</style>
<g>
	<g>
		<line class="st11" x1="122.56" y1="141.67" x2="122.56" y2="443.58"/>
		<line class="st11" x1="316.96" y1="138.97" x2="316.96" y2="440.88"/>
		<line class="st11" x1="120.78" y1="440.88" x2="316.96" y2="440.88"/>
	</g>
	<rect x="140.39" y="377.91" class="st12" width="158.74" height="44.97"/>
	<rect x="139.5" y="314.89" class="st12" width="158.74" height="44.97"/>
	<rect x="140.39" y="251.87" class="st12" width="158.74" height="44.97"/>
	<rect x="139.5" y="188.85" class="st12" width="158.74" height="44.97"/>
	<g>
		<path class="st13" d="M45.87,73.18c30.47-12.19,66.25-10.3,95.27,5.02s50.76,43.8,57.88,75.84"/>
		<path class="st13" d="M168.41,146.4c11.76-0.67,23.71,2.51,33.55,8.93c3.06-17.57,9.1-34.62,17.8-50.22"/>
	</g>
	<g>
		<path class="st13" d="M226.3,157.77c8.75-31.63,31.91-58.96,61.68-72.78s65.59-13.88,95.4-0.15"/>
		<path class="st13" d="M358.77,104.57c6.58-9.76,16.35-17.35,27.42-21.29c-12.13-13.07-22.04-28.2-29.19-44.57"/>
	</g>
	<g>
	</g>
	<g>
		<g>
			<path d="M362.74,183.92h5.89v39.38h23.17l-0.82,5.05h-28.25V183.92z"/>
			<path d="M377.76,247.78v44.43h-5.89v-44.43H377.76z"/>
			<path d="M362.64,311.64h28.55v5.05h-22.75v14.42h21.32v5.05h-21.32v19.92h-5.8V311.64z"/>
			<path d="M395.42,397.46c0,12.22-6.85,23.1-20.85,23.1c-13.08,0-20.38-10.11-20.38-22.85c0-12.71,7.45-22.85,20.89-22.85
				C387.59,374.86,395.42,384.25,395.42,397.46z M360.36,397.52c0,9.6,4.92,18.02,14.47,18.02c10.31,0,14.42-8.5,14.42-17.99
				c0-9.57-4.66-17.66-14.41-17.66C364.78,379.88,360.36,388.04,360.36,397.52z"/>
		</g>
	</g>
</g>
<g>
	<g>
		<line class="st11" x1="122.56" y1="141.67" x2="122.56" y2="443.58"/>
		<line class="st11" x1="316.96" y1="138.97" x2="316.96" y2="440.88"/>
		<line class="st11" x1="120.78" y1="440.88" x2="316.96" y2="440.88"/>
	</g>
	<rect x="140.39" y="377.91" class="st12" width="158.74" height="44.97"/>
	<rect x="139.5" y="314.89" class="st12" width="158.74" height="44.97"/>
	<rect x="140.39" y="251.87" class="st12" width="158.74" height="44.97"/>
	<rect x="139.5" y="188.85" class="st12" width="158.74" height="44.97"/>
	<g>
		<path class="st13" d="M45.87,73.18c30.47-12.19,66.25-10.3,95.27,5.02s50.76,43.8,57.88,75.84"/>
		<path class="st13" d="M168.41,146.4c11.76-0.67,23.71,2.51,33.55,8.93c3.06-17.57,9.1-34.62,17.8-50.22"/>
	</g>
	<g>
		<path class="st13" d="M226.3,157.77c8.75-31.63,31.91-58.96,61.68-72.78s65.59-13.88,95.4-0.15"/>
		<path class="st13" d="M358.77,104.57c6.58-9.76,16.35-17.35,27.42-21.29c-12.13-13.07-22.04-28.2-29.19-44.57"/>
	</g>
	<g>
	</g>
	<g>
		<g>
			<path d="M362.74,183.92h5.89v39.38h23.17l-0.82,5.05h-28.25V183.92z"/>
			<path d="M377.76,247.78v44.43h-5.89v-44.43H377.76z"/>
			<path d="M362.64,311.64h28.55v5.05h-22.75v14.42h21.32v5.05h-21.32v19.92h-5.8V311.64z"/>
			<path d="M395.42,397.46c0,12.22-6.85,23.1-20.85,23.1c-13.08,0-20.38-10.11-20.38-22.85c0-12.71,7.45-22.85,20.89-22.85
				C387.59,374.86,395.42,384.25,395.42,397.46z M360.36,397.52c0,9.6,4.92,18.02,14.47,18.02c10.31,0,14.42-8.5,14.42-17.99
				c0-9.57-4.66-17.66-14.41-17.66C364.78,379.88,360.36,388.04,360.36,397.52z"/>
		</g>
	</g>
</g>
</svg>
