<?xml version="1.0" encoding="utf-8"?>
<!-- Generator: Adobe Adobe Illustrator 24.2.0, SVG Export Plug-In . SVG Version: 6.00 Build 0)  -->
<svg version="1.1" id="레이어_1" xmlns="http://www.w3.org/2000/svg" xmlns:xlink="http://www.w3.org/1999/xlink" x="0px"
	 y="0px" width="480px" height="480px" viewBox="0 0 480 480" style="enable-background:new 0 0 480 480;" xml:space="preserve">
<style type="text/css">
	.st0{fill:#4FFFF9;}
	.st1{fill:none;stroke:#1AFFFF;stroke-width:5;stroke-miterlimit:10;}
	.st2{stroke:#FF0000;stroke-width:5;stroke-miterlimit:10;stroke-dasharray:0,0,0,0,0,0;}
	.st3{fill:none;stroke:#F799E9;stroke-width:15;stroke-miterlimit:10;stroke-dasharray:0,0,0,0,0,0;}
	.st4{fill:none;stroke:#96FF96;stroke-width:10;stroke-miterlimit:10;}
	.st5{fill:none;stroke:#00FF00;stroke-width:10;stroke-linecap:round;stroke-miterlimit:10;stroke-dasharray:0,0,0,0,0,0;}
	.st6{fill:none;}
	.st7{fill:none;stroke:#F5F511;stroke-width:10;stroke-miterlimit:10;}
	.st8{fill:none;stroke:#F5111D;stroke-width:10;stroke-miterlimit:10;}
	.st9{fill:none;stroke:#8CC63F;stroke-width:10;stroke-miterlimit:10;}
	.st10{fill:none;stroke:#0071BC;stroke-width:10;stroke-miterlimit:10;}
	.st11{fill:none;stroke:#FF0000;stroke-width:10;stroke-miterlimit:10;}
	.st12{fill:none;stroke:#000000;stroke-width:5;stroke-miterlimit:10;}
	.st13{fill:none;stroke:#C273FF;stroke-width:5;stroke-miterlimit:10;}
	.st14{fill:none;stroke:#FF0000;stroke-width:5;stroke-miterlimit:10;}
	.st15{fill:none;stroke:#8CC63F;stroke-width:5;stroke-miterlimit:10;}
	.st16{fill:none;stroke:#44611F;stroke-width:5;stroke-miterlimit:10;}
	.st17{fill:none;stroke:#FFBFE1;stroke-width:5;stroke-miterlimit:10;stroke-dasharray:12,12,12,12,12,12;}
</style>
<rect x="48.88" y="80.36" class="st6" width="389.74" height="340.29"/>
<g>
	<g>
		<path d="M79.68,162.43c2.74-8.85,4.33-19.46,4.54-26.4h8.83c-0.44,8.59-3.9,20.91-6.54,26.4H79.68z M96.98,162.43
			c2.66-8.72,4.33-19.82,4.54-26.4h8.83c-0.47,8.11-3.65,20.45-6.5,26.4H96.98z"/>
		<path d="M123.16,139.87h9.23v29.05h36.26v-29.05h9.23v69.58h-9.23v-32.62h-36.26v32.62h-9.23V139.87z"/>
		<path d="M199.73,185.69c0.07,10.32,5.25,17.64,13.86,17.64c8.02,0,10.62-4.13,12.24-7.84h8.82c-1.99,6.49-7.44,15.16-21.33,15.16
			c-15.94,0-22.45-12.96-22.45-26.01c0-15.08,7.6-27.1,23.01-27.1c16.36,0,21.72,13.12,21.72,23.94c0,1.54,0,2.84-0.14,4.21H199.73z
			 M226.73,179.52c-0.1-8.34-4.3-15.04-12.96-15.04c-8.92,0-12.84,6.21-13.73,15.04H226.73z"/>
		<path d="M246.79,209.45v-73.42h8.75v73.42H246.79z"/>
		<path d="M270.49,209.45v-73.42h8.75v73.42H270.49z"/>
		<path d="M337.77,183.99c0,14.61-8.37,26.66-23.88,26.66c-14.53,0-23.32-11.24-23.32-26.48c0-14.97,8.61-26.63,23.89-26.63
			C328.55,157.54,337.77,168.08,337.77,183.99z M299.6,184.09c0,11.12,5.55,19.23,14.66,19.23c9.28,0,14.49-7.7,14.49-19.2
			c0-11.41-5.19-19.27-14.69-19.27C304.57,164.86,299.6,172.52,299.6,184.09z"/>
		<path d="M96.9,329.45l-18.66-69.58h9.74c5.41,22.79,12.93,51.57,14.21,59.52h0.1c1.83-8.98,11.38-41.77,15.93-59.52h8.98
			c4.17,15.54,13.68,50.87,15.24,59.18h0.1c2.24-12.03,11.95-44.88,15.8-59.18h9.11l-20.3,69.58h-9.92
			c-4.21-16.01-13.16-49.18-14.86-57.51h-0.1c-2.08,10.38-11.04,41.53-15.51,57.51H96.9z"/>
		<path d="M220.67,303.99c0,14.61-8.37,26.66-23.88,26.66c-14.53,0-23.32-11.24-23.32-26.48c0-14.97,8.61-26.63,23.89-26.63
			C211.45,277.54,220.67,288.08,220.67,303.99z M182.5,304.09c0,11.12,5.55,19.23,14.66,19.23c9.28,0,14.49-7.7,14.49-19.2
			c0-11.41-5.19-19.27-14.69-19.27C187.47,284.86,182.5,292.52,182.5,304.09z"/>
		<path d="M232.09,292.52c0-7.09-0.06-11.08-0.1-13.78h8.58c0.14,1.42,0.27,5.4,0.27,10.35c2.65-6.86,8.7-11.29,17.08-11.55v8.73
			c-10.4,0.31-17.08,5.74-17.08,18.56v24.62h-8.75V292.52z"/>
		<path d="M267.29,329.45v-73.42h8.75v73.42H267.29z"/>
		<path d="M333.17,256.03v59.09c0,4.77,0,9.44,0.1,14.33h-8.41c-0.24-1.34-0.41-5.23-0.44-7.2c-2.5,5.29-7.64,8.4-15.95,8.4
			c-13.04,0-21.05-10.57-21.05-26.03c0-15.61,8.64-27.08,22.67-27.08c8.97,0,12.97,3.63,14.33,6.47v-27.98H333.17z M296.5,304.35
			c0,12.25,5.83,18.87,13.79,18.87c11.86,0,14.46-8.75,14.46-19.87c0-11.27-2.36-18.39-13.78-18.39
			C302.04,284.97,296.5,292.05,296.5,304.35z"/>
		<path d="M354.95,306.02l-1.07-33.93v-12.22h9.43v12.26l-1.03,33.89H354.95z M354.12,329.51v-13.78h8.71v13.78H354.12z"/>
		<path d="M374.57,282.43c2.74-8.85,4.33-19.46,4.54-26.4h8.83c-0.44,8.59-3.9,20.91-6.54,26.4H374.57z M391.88,282.43
			c2.66-8.72,4.33-19.82,4.54-26.4h8.83c-0.47,8.11-3.65,20.45-6.5,26.4H391.88z"/>
		<path d="M410.3,340.92c4.54-9.55,6.68-18.69,7.08-26.19h8.86c-0.65,9.88-4.88,20.73-8.85,26.19H410.3z M417.18,293.69v-14.78h9.05
			v14.78H417.18z"/>
	</g>
</g>
</svg>
